<?xml version="1.0" encoding="UTF-8"?>
<svg id="Layer_1" data-name="Layer 1" xmlns="http://www.w3.org/2000/svg" viewBox="0 0 462.75 260.81">
  <defs>
    <style>
      .cls-1 {
        fill: #ffff;
        stroke-width: 0px;
      }

      .cls-2, .cls-3 {
        stroke: #fff;
        stroke-miterlimit: 10;
        stroke-width: 2.84px;
      }

      .cls-3 {
        fill: #0a44ff;
      }
    </style>
  </defs>
  <g>
    <path class="cls-1" d="M99.73,219.89v36.29c0,1.43-1.16,2.58-2.58,2.58h-10.17c-1.43,0-2.58-1.16-2.58-2.58v-33.34c0-11-3.84-17.52-12.4-17.52s-14.45,7.67-14.45,19.56v21.12c0,7.05-5.71,12.76-12.76,12.76h0c-1.43,0-2.58-1.16-2.58-2.58v-33.34c0-11-3.84-17.52-12.53-17.52s-14.32,7.67-14.32,19.56v31.3c0,1.43-1.16,2.58-2.58,2.58H2.58c-1.43,0-2.58-1.16-2.58-2.58v-58.76c0-1.43,1.16-2.58,2.58-2.58h9.15c1.43,0,2.58,1.16,2.58,2.58v.09c0,2.33,2.81,3.45,4.44,1.79,3.78-3.84,9.13-6.38,15.5-6.38,7.87,0,14.46,3.54,18.63,9.78,1,1.5,3.21,1.48,4.24,0,3.95-5.74,10.3-9.77,19.2-9.77,13.68,0,23.4,10.23,23.4,26.98Z"/>
    <path class="cls-1" d="M112.52,226.8c0-19.43,15.6-33.88,34.14-33.88s34.27,14.58,34.27,33.88-15.47,34.01-34.27,34.01-34.14-14.58-34.14-34.01ZM165.97,226.8c0-12.4-8.18-20.46-19.31-20.46s-19.31,8.05-19.31,20.46,8.57,20.59,19.31,20.59,19.31-8.31,19.31-20.59Z"/>
    <path class="cls-1" d="M254.45,219.89v36.24c0,1.45-1.18,2.63-2.63,2.63h0c-7.02,0-12.71-5.69-12.71-12.71v-22.96c0-11.25-5.24-17.77-13.81-17.77-9.21,0-15.6,7.8-15.6,19.82v31c0,1.45-1.18,2.63-2.63,2.63h-10.09c-1.45,0-2.63-1.18-2.63-2.63v-58.67c0-1.45,1.18-2.63,2.63-2.63h9.06c1.45,0,2.63,1.18,2.63,2.63h0c0,2.33,2.8,3.5,4.46,1.87,3.98-3.91,9.73-6.42,16.63-6.42,14.83,0,24.68,10.23,24.68,26.98Z"/>
    <path class="cls-1" d="M331.56,250.06v6.74c0,.99-.55,1.92-1.45,2.35-1.58.75-3.97,1.41-6.35,1.41-6.91,0-11.64-3.84-11.64-12.28v-1.02c-.9,2.05-2.17,3.96-3.96,5.75-4.73,4.73-11.76,7.8-19.56,7.8-12.15,0-20.07-7.42-20.07-17.77,0-5.75,1.92-9.72,4.86-12.66,4.6-4.6,11.89-6.65,18.92-8.18,7.03-1.53,13.68-2.56,16.62-5.5,1.15-1.02,1.66-2.3,1.66-3.96,0-3.58-3.45-6.39-12.4-6.39-8.15,0-16.47,2.54-23.02,5.88-1.76.9-3.83-.36-3.83-2.33v-8.19c0-.96.51-1.83,1.35-2.3,6.28-3.51,16.24-6.49,25.76-6.49,18.41,0,26.47,7.8,26.47,20.97v29.02c0,3.2,1.66,4.48,3.96,4.48h0c1.48,0,2.68,1.2,2.68,2.68ZM310.91,232.91c.41-2.04-1.58-3.73-3.53-2.98-2.38.91-5.16,1.58-7.66,2.11-5.27,1.13-10.04,2.38-12.76,4.72-.11.09-.21.19-.3.3-1.32,1.48-2.16,2.99-2.16,5.21,0,3.58,2.81,6.78,8.69,6.78,5.06,0,8.99-1.87,12.04-4.76.07-.07.14-.14.21-.21,2.79-3.01,4.61-6.92,5.47-11.17Z"/>
    <path class="cls-1" d="M338.59,226.8c0-18.8,14.06-33.88,34.52-33.88,4.16,0,8.7.84,12.08,2.21.98.39,1.59,1.36,1.58,2.41l-.07,7.76c-.02,1.73-1.71,2.98-3.35,2.44-2.39-.78-5.5-1.4-9.09-1.4-12.66,0-20.84,8.82-20.84,20.46s8.18,20.59,20.84,20.59c3.51,0,6.65-.62,9.07-1.44,1.65-.56,3.36.69,3.37,2.44l.07,7.73c.01,1.06-.63,2-1.6,2.42-3.2,1.36-7.63,2.28-12.06,2.28-20.59,0-34.52-15.09-34.52-34.01Z"/>
    <path class="cls-1" d="M394.34,226.8c0-19.43,15.6-33.88,34.14-33.88s34.27,14.58,34.27,33.88-15.47,34.01-34.27,34.01-34.14-14.58-34.14-34.01ZM447.79,226.8c0-12.4-8.18-20.46-19.31-20.46s-19.31,8.05-19.31,20.46,8.57,20.59,19.31,20.59,19.31-8.31,19.31-20.59Z"/>
  </g>
  <path class="cls-1" d="M149.06,148.46c7.84-3.79,11.05-13.18,7.07-20.68l-6.61-14.56c-7.22-14.92-3.88-25.88,11.39-33.26l15.42-7.46c7.65-3.7,16.77-.65,20.38,6.8l29.47,62.03c3.61,7.46,12.73,10.5,20.38,6.8l.3-.14c7.65-3.7,10.92-12.74,7.32-20.2l-29.47-62.03c-3.61-7.46-.33-16.5,7.32-20.2l23.42-11.33c7.49-3.62,16.43-.82,20.23,6.34l53.02,99.68c3.81,7.16,12.75,9.96,20.23,6.34h0c7.86-3.8,11.1-13.19,7.14-20.73l-57.78-110.23c-7.39-14.09-24.92-19.64-39.61-12.53l-118.48,57.31c-27.99,13.54-34.01,34.09-21.5,59.95l10.2,21.72c3.76,7.18,12.69,10,20.17,6.39h0Z"/>
  <ellipse class="cls-3" cx="343.8" cy="136.73" rx="14.22" ry="12.75" transform="translate(-7.73 252.13) rotate(-39.86)"/>
  <ellipse class="cls-2" cx="242.14" cy="136.74" rx="14.22" ry="12.75" transform="translate(-31.37 186.98) rotate(-39.86)"/>
  <ellipse class="cls-2" cx="144.06" cy="136.98" rx="14.22" ry="12.75" transform="translate(-54.31 124.17) rotate(-39.86)"/>
</svg>